<svg id="Layer_1" height="512" viewBox="0 0 512 512" width="512" xmlns="http://www.w3.org/2000/svg" data-name="Layer 1"><path d="m256.024 0c141.345 0 255.987 114.614 255.987 256s-114.642 256-255.987 256c-141.393 0-256.035-114.611-256.035-256s114.642-256 256.035-256zm88.636 200.755a10.718 10.718 0 0 0 -15.16 15.152 56.688 56.688 0 0 1 0 80.192 10.718 10.718 0 0 0 15.162 15.153 78.171 78.171 0 0 0 0-110.5zm-50.105 190.161v-13.371h-168.555v13.371a15.119 15.119 0 0 0 15.1 15.084h138.388a15.092 15.092 0 0 0 15.067-15.083zm-168.555-242.385v207.585h168.555v-207.585zm0-27.444v6.013h168.555v-6.014a15.092 15.092 0 0 0 -15.067-15.086h-138.388a15.119 15.119 0 0 0 -15.1 15.087zm260.006 38.335a10.718 10.718 0 1 0 -15.163 15.153 115.136 115.136 0 0 1 0 162.854 10.718 10.718 0 0 0 15.163 15.153 136.62 136.62 0 0 0 0-193.16z" fill-rule="evenodd"/></svg>