<svg id="Layer_1" height="512" viewBox="0 0 512 512" width="512" xmlns="http://www.w3.org/2000/svg" data-name="Layer 1"><path d="m256 0c141.382 0 256 114.613 256 256s-114.618 256-256 256-256-114.616-256-256 114.621-256 256-256zm0 418.5c38.581-48.3 118.826-151.77 118.826-206.17a118.828 118.828 0 1 0 -237.655 0c0 16.578 8.473 49.309 48.871 111.073 23.764 36.314 51.246 71.597 69.958 95.097zm73.829-206.17a73.834 73.834 0 1 0 -73.829 73.835 73.929 73.929 0 0 0 73.832-73.836z" fill="#595959" fill-rule="evenodd"/></svg>