<?xml version="1.0"?>
<svg xmlns="http://www.w3.org/2000/svg" xmlnsXlink="http://www.w3.org/1999/xlink" xmlnsSvgjs="http://svgjs.com/svgjs" version="1.1" width="512" height="512" x="0" y="0" viewBox="0 0 512 512" style="enable-background:new 0 0 512 512" xmlSpace="preserve"><g><g xmlns="http://www.w3.org/2000/svg"><path d="m328.6938 351.7774c-.0486 7.0422-.0687 13.8448-.1475 20.6467-.2121 18.3069-2.6305 36.3891-5.7284 54.3884-1.6223 9.4259-3.4557 18.8173-5.3289 28.1973-.6578 3.2937-1.6855 6.5163-2.6039 9.7545-1.2353 4.3561-.8412 4.7076 2.4762 7.6561 3.2059 2.8492 6.3964 5.9525 8.7095 9.5177 4.1828 6.4472 1.7367 11.8176-5.6381 13.9853-8.6451 2.541-17.4336 2.01-26.1379.9343-7.9754-.9856-15.8662-2.6949-23.7647-4.2366-1.9564-.3819-3.7984-1.3498-5.8803-2.1173-4.9501 8.552-13.6726 9.908-22.3208 11.1305-13.6402 1.9283-27.3294 2.7812-40.9972.185-6.4136-1.2182-8.374-5.8833-4.8666-11.3939 1.1396-1.7904 2.4621-3.4663 3.7331-5.1707 1.2109-1.6238 2.4637-3.2163 3.8554-5.0273-3.9492-1.6157-4.6461-4.3819-3.8713-8.2217 2.4871-12.3257 4.9071-24.6719 6.9786-37.0728 2.3738-14.2102 3.0991-28.5542 1.6283-42.9123-.6578-6.4214-2.6597-12.7502-2.8842-19.1618-.5204-14.8592-.5748-29.7472-.3439-44.6161.1622-10.4453.9316-20.8922 1.7637-31.3118.5174-6.4789 3.0927-12.3275 7.3769-17.7821-2.4516-.5721-4.6366-1.0842-6.8225-1.5919-17.1977-3.9944-33.7604-9.5323-48.1866-20.1309-2.776-2.0395-5.2533-4.4834-8.003-6.5625-.8256-.6243-2.181-1.0576-3.1688-.8809-13.6378 2.4396-28.2536-6.3517-32.0576-19.5259-.6308-2.1847-.5358-4.5704-1.0344-6.8056-.2464-1.1045-.8249-2.4292-1.6876-3.0586-17.7091-12.9189-26.5675-31.1812-31.0718-51.9069-3.8842-17.8724-.5926-35.0637 6.174-51.7271 7.5965-18.707 18.9447-34.7647 34.4711-47.7403 5.5546-4.642 11.8413-8.055 18.8651-10.0569 1.0878-.31 2.3512-1.0603 2.9176-1.9844 8.1996-13.3775 19.9978-22.7971 33.2843-30.6332 13.3215-7.8567 27.6397-12.8314 43.005-14.4957 14.4708-1.5673 28.8807-.6362 43.125 2.2896 24.3539 5.0024 46.1548 15.2792 64.6544 32.0699 17.063 15.4868 27.2877 34.854 31.8426 57.3096 2.2842 11.2611 3.685 22.5687 1.0491 34.0069-.1981.8595.2175 1.9247.5341 2.829 4.9274 14.0715 7.8256 28.5192 8.0268 43.4556.0269 1.993 1.2602 2.237 2.7166 2.5309 9.8974 1.997 19.7825 4.0556 29.6891 6.0054 2.2561.444 3.5058 1.6569 4.3484 3.7461 4.3509 10.7874 8.0082 21.7794 10.3617 33.1913.2566 1.244.8403 2.572 1.6627 3.5237 6.3631 7.3631 8.0122 16.2469 8.1613 25.5244.0579 3.6023-.4368 7.2684-1.1654 10.8054-.365 1.7716-1.8538 3.3005-2.7701 4.9743-.5197.9494-1.3108 1.9751-1.298 2.9575.2101 16.162-3.4993 31.6486-8.0292 46.9837-2.3558 7.9753-5.0241 15.8583-7.3849 23.8323-.5774 1.9504-1.6291 2.7397-3.4872 3.0047-22.6355 3.228-45.2998 4.9554-68.0825 1.4912-2.1862-.3325-4.3924-.5333-6.6473-.8021zm-183.4758-155.6132c.5569.1916 1.1139.3831 1.6709.5747l.201.0096s.2005-.0175.2005-.0175c.1926.1624.3851.3249.5777.4874.5062.0434 1.0125.0867 1.5187.1301.7214 1.3716 1.3987 1.431 1.6638-.1906.3118-1.9067.4232-3.8462.6214-5.7715.0138-.1547.013-.3093-.0026-.4638.1595-.358.319-.716.4784-1.074.4872-2.6853.9089-5.3845 1.4728-8.0537 2.4425-11.5622 5.0748-23.0865 7.3527-34.6807 2.1665-11.0274 4.3006-22.0363 9.4137-32.1774.4447-.882 1.4884-1.462 2.2538-2.1823.4956.824.9891 1.6492 1.4881 2.4712.1308.2155.2783.4209.6055.9124 3.7771-.8921 7.6186-1.7993 11.4601-2.7066 1.0481-.1428 2.1227-.1823 3.1404-.4436 21.5896-5.5428 43.181-11.0791 64.7546-16.684 15.9135-4.1344 31.782-8.4612 48.1058-10.7428 3.9339-.5498 7.8901-.9401 11.8361-1.4037.0636.2307.1272.4614.1908.6921-2.6746 1.3121-5.3493 2.6241-8.5943 4.2161 9.8942 5.2329 19.2736 9.7129 29.3731 12.5343 2.9022 1.0442 5.7346 2.4279 8.725 3.0428 3.4008.6992 5.221 2.4222 6.1547 5.7044.8693 3.0556 2.2226 5.9734 3.6033 9.5802.3912-1.0268.5743-1.2631.5469-1.4718-.496-3.7748-.8798-7.5711-1.5561-11.3143-3.7869-20.9586-12.9697-39.1251-28.5287-53.8061-13.8681-13.0856-30.3033-21.7754-48.4711-27.2592-9.2571-2.7942-18.6728-4.8963-28.3658-5.5054-7.7989-.0372-15.5979-.0744-23.3968-.1116-1.666.1541-3.3448.224-4.9957.4763-9.3947 1.4358-18.6171 3.6727-27.1393 7.9059-6.9513 3.4529-13.7663 7.2835-20.2581 11.5328-8.5346 5.5866-16.5324 11.9018-21.5341 21.1802-1.127 2.0906-2.2623 4.2149-3.7113 6.0765-.6614.8497-2.0779 1.4137-3.1848 1.4711-.4649.0241-1.1474-1.5523-1.4844-2.4898-.2632-.7322-.1457-1.6012-.23-2.9201-2.1141 1.5626-3.9471 2.561-5.3255 3.996-7.1124 7.4042-14.3097 14.7426-21.0994 22.4375-11.2133 12.7083-18.3516 27.6998-22.7118 43.9278-3.8643 14.3823-3.4554 28.8677 1.0641 43.1335 3.4902 11.0169 8.9259 20.9972 16.5234 29.7132 2.0777 2.3836 4.6954 4.2965 7.1239 6.478 1.5396-2.6103 2.6066-4.6405 3.8781-6.5333 3.7775-5.6237 8.5092-9.9278 15.5982-10.7931l9.0207.1284zm172.459 163.021c-3.5856 4.4305-7.2806 8.8003-8.4908 14.9095 3.1834.4317 6.0656.8224 8.9478 1.2133 1.17.2964 2.34.5927 3.7995.9623-.1978-8.6587.7299-17.0356.3409-25.4039-.3246-.0326-.6492-.0652-.9738-.0979-1.2079 2.8055-2.4157 5.6111-3.6236 8.4167zm-5.0224 129.3874c1.3087.008 2.6472.1968 3.9201-.0127 2.8845-.4746 3.2714-1.5324 1.4279-3.8014-2.6576-3.271-5.3717-6.4972-8.114-9.6978-1.4195-1.6567-3.0537-1.9802-4.7976-.4069-.8498.2018-1.6985.5725-2.5496.5779-5.3124.034-10.6254-.0137-15.9382-.0343-5.2637-1.854-10.5275-3.708-16.4875-5.8073-.0324 4.7028-.0211 9.0172-.1111 13.3295-.0388 1.8617.6624 3.2081 2.4967 3.4843 5.3849.8108 10.7928 1.4695 16.1917 2.1877.6442.2172 1.2797.5894 1.9341.6263 4.2212.2381 8.4489.585 12.6698.5316 3.1228-.0393 6.2387-.6311 9.3577-.9769zm8.0399-186.7804c.6324-6.9393 1.3795-13.8711 1.8437-20.8217.2005-3.0025-1.1501-3.7216-4.263-2.7869-4.0029.5739-7.554 1.7253-8.9417 6.1772-.4136 1.3268-1.2025 2.5706-1.9872 3.7397-1.1236 1.6741-.9364 3.1956-.1476 4.9712 3.2663 7.3521 6.4031 14.7617 9.6012 22.1442.3315.7652.7543 1.4908 1.1348 2.2348.2617-.0245.5235-.049.7852-.0735.6583-5.1949 1.3164-10.39 1.9746-15.585zm30.7869-46.1637c.5035-8.9349-4.2995-14.6277-11.5957-18.6674-4.9573-2.7448-9.9698-1.0167-12.6679 4.1337-1.3636 4.2302-2.7271 8.4603-4.0907 12.6905-.1289.3196-.3907.6497-.3666.9574.3213 4.1015.5329 8.2198 1.0743 12.2938.5961 4.4859 2.5677 5.7256 7.1312 5.218 5.3472-.5949 10.0473-2.7742 14.2479-5.9361 3.495-2.6309 6.5347-5.7499 6.2675-10.6899zm68.4138 1.564c-.8294-5.0393-1.5238-10.1058-2.5317-15.1091-.7807-3.8755-1.5442-4.3021-5.4386-4.0789-1.3176.0755-2.6568.1803-3.9331.4901-3.1475.764-6.0186 2.0046-7.4804 5.2202-4.1402 6.3667-4.1422 14.8137-.0049 20.7462 3.0598 5.5178 8.0276 6.1579 13.6411 5.5356 4.3999-.4878 6.1714-2.5274 5.5905-7.0036.0523-1.9336.1047-3.867.1571-5.8005zm-116.7935 39.1257c-.8217-.5164-1.5987-1.2211-2.4926-1.4338-.2662-.0634-1.0414 1.1965-1.2782 1.9465-4.4564 14.1095-7.5902 28.5091-9.5715 43.1754-.575 4.2564.0965 7.6537 3.6821 10.5553 4.7139 3.8147 9.0479 8.0988 13.725 12.3442 1.2175-1.9373 2.242-3.5675 3.2664-5.1978 2.2565-2.6424 4.5129-5.2849 6.9377-8.1244-1.4104-.6789-2.3253-1.2244-3.3101-1.5719-2.1665-.7644-2.9103-1.8776-2.1663-4.3368 1.2212-4.0364 1.9618-8.2184 2.9045-12.34.0318-2.1326.6992-4.5096-.0111-6.3567-3.7023-9.6276-7.755-19.1204-11.6859-28.66zm-93.9048 199.118c10.6473-.4651 21.3154-.6695 31.9326-1.5141 4.743-.3774 9.6248-1.3838 13.4493-4.8139 2.4508-.9742 3.5099-2.7362 2.8052-4.7207-.9688-2.7282-2.8269-.9803-4.3627-.847-4.7463.4435-9.4936 1.2582-14.2386 1.2453-7.5005-.0204-14.9996-.5955-22.4992-.9359-4.1611-1.4821-4.1609-1.482-7.0201 1.6568-.1775.1949-.3843.3666-.5405.5766-2.0488 2.754-4.0909 5.513-6.1348 8.2708.1513.3466.3026.6931.4539 1.0397 2.0516.0142 4.1032.0283 6.1549.0424zm76.2607-87.373c1.0012-.5284 2.0302-1.0107 2.9989-1.593 4.2434-2.5506 8.4191-5.2197 12.7352-7.6393 1.1511-.6453 2.7117-.7584 4.0853-.7626 2.1062-.0066 2.5714 1.3167 1.7739 3.0601-.3528.7712-.9459 1.5303-1.6218 2.0411-7.1543 5.4071-14.5963 10.337-22.9051 13.8592-.8662.3672-1.7623 1.432-2.0109 2.3456-.7888 2.8979-1.2269 5.889-1.8911 8.8236-2.3845 10.5344-4.7853 21.0652-7.231 31.5855-.5065 2.1786-.084 3.599 2.3009 4.1924 2.2306.5551 4.4081 1.3235 6.609 1.9981 7.9401 2.0663 15.8834 3.8856 23.896.3064 3.6868-.5935 4.9248-1.9595 5.1161-5.5234.071-1.3238.1358-2.6748.4449-3.9551 4.6398-19.223 7.7459-38.7125 10.1654-58.3203.5914-4.7927 1.0279-9.6044 1.5492-14.5359-1.605-.1652-2.7363-.2816-3.8675-.398-9.2048-1.0474-18.4052-2.9025-27.6156-2.9536-13.9447-.0773-27.9026.9928-41.842 1.7986-5.6305.3255-11.227 1.2398-16.8389 1.8861-4.4681.5805-8.939 1.1403-13.4029 1.7511-1.9562.2676-2.5089 1.3273-2.2739 3.362 1.375 11.9055 1.5764 23.8326.5513 35.7922-1.4403 16.8033-4.0154 33.347-10.5374 49.5374 3.6113.4817 7.1508.9539 10.6902 1.426 12.2834 2.3101 24.5168 1.9883 36.7052-.6982 1.8934-.4277 3.7735-.9315 5.6834-1.2643 2.5093-.4374 3.5869-1.9496 3.789-4.381.2275-2.7371.3345-5.5188.926-8.1853 4.0198-18.1232 7.0189-36.5392 14.9695-53.5652 4.3505-6.0242 8.6311-12.1008 13.085-18.0475 1.8485-2.468 3.981-4.7437 6.1497-6.944 1.3346-1.354 3.0164-1.4387 4.529-.0856 1.4559 1.3023 1.3818 2.7863.2781 4.2523-1.0071 1.3378-2.0968 2.6135-3.1488 3.9163-3.2029 3.6557-6.4634 7.2631-9.5842 10.9876-1.5582 1.8597-2.861 3.9334-4.2789 5.9108-.0807.0736-.1614.1473-.2421.2209.0559-.0018.1328.0185.1628-.0103.0487-.0466.0669-.1254.0981-.1907zm20.7083-143.6956c.3073-3.5669.6147-7.1337.922-10.7005.3009-.9283.6017-1.8566 1.036-3.1964-7.5485 2.4552-14.5588 4.7267-21.5566 7.0365-.3639.1201-.6201.5663-.9265.8607-5.0446 1.6349-10.1315 3.151-15.1258 4.9276-13.7606 4.8949-27.4824 9.8988-41.2196 14.8596-2.5834 1.4229-6.103 2.2263-7.545 4.4048-2.5762 3.892-4.6511 8.4628-5.5655 13.0244-1.2953 6.4617-1.8297 13.1716-1.8409 19.7769-.0321 18.9393.3435 37.8796.6131 56.8187.036 2.5307.3851 5.057.614 7.8913 5.0513-.9729 9.8938-1.9056 14.7362-2.8382 1.9309-.2206 3.8581-.4849 5.7935-.6549 13.8367-1.2153 27.661-2.6288 41.5188-3.5218 6.9148-.4456 13.8916.072 20.8404.1539 2.4177.1254 4.8354.2508 7.2531.3761.1826-.2498.3653-.4996.5479-.7495-.6739-1.3282-1.0572-2.958-2.0704-3.9341-5.2204-5.0289-10.563-9.9337-15.9412-14.7953-3.8213-3.4542-5.7924-7.3748-4.588-12.7143 1.34-5.941 2.2732-11.9727 3.4479-17.9523 1.8546-9.4403 3.0853-19.0658 7.1622-27.9055 1.2728-2.7598.1545-4.4118-1.4124-6.3194-1.2352-1.5038-2.4176-1.9611-3.9434-.5078-5.4202 1.8862-10.8465 3.7552-16.2591 5.6629-7.5097 2.6467-14.9863 5.3907-22.5374 7.9126-1.1444.3822-2.6143-.2103-3.9336-.3519.2722-1.2104.5444-2.4207.8167-3.6311 20.8888-8.5458 41.7777-17.0916 62.9075-25.7359-1.2712-2.7831-2.5076-5.4901-3.7439-8.1971zm107.9579 19.9339c.1723-2.4361.3445-4.8723.5326-7.5314-7.4745 1.7302-13.5307-.3728-18.5921-5.5396-3.4332-3.5046-4.4066-8.1514-5.6936-12.641.1878-3.435.1969-6.891.5981-10.3009 1.0555-8.9709 7.3484-15.181 16.2563-16.2819 1.1935-.1475 2.3847-.314 3.7494-.4944-2.8399-9.5042-5.6897-18.7041-8.2921-27.9735-.7014-2.4982-1.9654-3.4932-4.4301-4.0845-13.6867-3.2835-27.4997-5.8308-41.4693-7.5034-7.2788-.8715-14.5825-1.5356-21.8749-2.2933-3.739-.4239-7.478-.8477-10.7981-1.2241 1.3771 13.8835 2.7307 27.5304 4.1091 41.427 4.9922-2.2583 10.4721-1.9113 15.8879.3545 2.7861 2.2931 5.7754 4.3819 8.3219 6.9158 9.4826 9.4358 12.0433 24.1984-1.2262 34.5439-1.9452 1.5166-3.831 3.1094-5.7443 4.667-3.4516 1.1053-6.9106 2.1879-10.353 3.3212-5.1074 1.6814-5.1466 1.6957-5.2567 7.0521-.324 15.7549-3.007 31.1529-6.9297 46.3673-.8303 3.2205-1.6807 6.4358-2.5144 9.6248.478.2452.6966.4277.9405.4724 25.7358 4.7213 51.4755 3.7467 77.2024-.0499.8728-.1288 2.0803-.9636 2.3405-1.7359.9537-2.8312 1.5728-5.7751 2.318-8.6767 2.4944-8.2802 5.4337-16.459 7.3524-24.8706 1.7604-7.7177 2.4205-15.6866 3.5654-23.5449zm-62.1335-100.6499c3.0909.4661 6.1819.9323 9.4382 1.4233-.335-10.6138-.8765-20.7676-3.7822-30.4397-3.5052-11.6678-7.8629-23.0849-12.02-34.5495-2.9322-8.0864-3.0573-8.0413-11.2442-10.2863-.1677-.046-.3463-.052-.5198-.0767-.7142-.3502-1.4037-.7677-2.1463-1.0406-11.1746-4.1068-22.0257-8.8298-31.6747-15.987-.7962-.5906-2.3852-.6165-3.4147-.2943-3.1226.9774-6.0757 2.544-9.2288 3.3686-21.6812 5.6702-43.3714 11.3106-65.1115 16.7495-11.2488 2.8142-22.6057 5.1965-33.9137 7.7739-3.9535.4777-7.8987 1.0565-11.8645 1.386-1.7151.1425-2.3344.7192-2.7218 2.4425-5.5544 24.7054-11.1839 49.394-16.8851 74.0659-.6122 2.6496-1.6777 5.2163-2.7662 7.72-.3123.7184-1.3895 1.2778-2.2259 1.5044-.3098.0839-.942-.9915-1.4149-1.5486-.6104-.719-1.0695-1.6889-1.8359-2.132-3.3834-1.9559-7.0368-2.4275-10.7534-1.156-8.2458 2.821-14.6319 12.9018-13.7994 21.6099 1.0213 10.6828 10.4789 18.2083 22.0375 17.1144 6.5138-.6165 13.3213-1.2372 16.2345-8.7758.0269-.0696.3071-.0414.4697-.0589 1.8029 5.878-2.0781 9.3948-5.6212 13.1035.789.5509 1.4186 1.0364 2.0909 1.4532 18.8314 11.6743 39.1437 19.3655 61.1093 22.484 4.9619.7045 9.9719 1.6934 14.9556-.325 14.1181-5.7179 28.2747-11.3407 42.4162-17.0009 13.5988-4.7807 27.2171-9.5077 40.7554-14.4541.9789-.3577 2.0362-2.369 1.9391-3.517-1.065-12.5948-2.3054-25.1758-3.6043-37.7495-.4609-4.4617-1.2113-8.8934-1.8457-13.4548 1.0476-.2075 1.6349-.4226 2.2229-.4246 4.422-.0146 8.8482-.102 13.2654.0532 7.1562.2514 14.3066.6707 21.4595 1.019zm-34.6202 86.3058c-.6764-3.941-1.7289-7.4876-1.7717-11.0463-.0431-3.5922.9154-7.1964 1.5168-11.361-1.6909 1.0035-4.0671 1.5659-4.527 2.8271-2.584 7.0857-2.1903 14.0074 2.4664 20.3794.9213-.318 1.7462-.6027 2.3155-.7992zm-21.5718 16.2534c-.0567.2798-.1134.5596-.17.8394 1.5974.4937 3.3628 1.6299 4.7373 1.2707 1.0353-.2706 1.5698-2.4577 2.3272-3.7917-.2497-.2798-.4993-.5595-.749-.8393-2.0485.8402-4.097 1.6805-6.1455 2.5209z" fill="#211312" data-original="#211312"/><path d="m188.3727 120.2928c11.308-2.5774 22.6649-4.9597 33.9137-7.7739 21.7401-5.4389 43.4303-11.0794 65.1115-16.7495 3.1531-.8246 6.1062-2.3913 9.2288-3.3686 1.0295-.3222 2.6184-.2963 3.4147.2943 9.649 7.1572 20.5001 11.8802 31.6747 15.987.7426.2729 1.4321.6904 2.1462 1.0406.2198 1.1178.3285 2.2716.6768 3.3478 3.9969 12.3503 8.2517 24.6223 11.9872 37.0506 3.2765 10.9013 5.1781 22.1036 5.4641 33.5305-7.1529-.3484-14.3034-.7676-21.4597-1.019-4.4172-.1552-8.8433-.0678-13.2654-.0532-.588.0019-1.1753.2171-2.2229.4246.6344 4.5614 1.3848 8.9931 1.8457 13.4548 1.299 12.5737 2.5394 25.1546 3.6043 37.7495.0971 1.1479-.9602 3.1593-1.9391 3.517-13.5382 4.9465-27.1566 9.6734-40.7557 14.4535-.6514-.2622-1.2852-.5839-1.956-.7765-14.341-4.1165-26.8042-11.7752-38.554-20.6786-8.1988-6.2126-15.4014-13.5098-22.1479-21.2775-6.1026-7.0263-11.5445-14.5001-15.8307-22.7599-7.9847-15.3872-10.9844-31.9289-11.0368-49.1103-.0177-5.7609.0641-11.5221.1005-17.2832zm64.1427 49.2773c-1.2043.2042-2.735.2625-4.1246.7356-4.92 1.6753-9.8799 3.2857-14.6534 5.3222-3.7148 1.5849-7.2205 3.6881-10.7272 5.7197-1.6328.9459-3.0793 2.3403-2.3592 4.5341.7444 2.2678 2.5784 2.9897 4.8351 2.8555.6175-.0367 1.2529.0271 1.8516-.0947 4.8247-.982 9.6688-1.8877 14.4551-3.0333 4.7863-1.1455 9.6062-2.2785 14.2304-3.9252 2.7895-.9933 5.0379-3.4769 5.2436-6.4859.2043-2.9886-2.7563-4.042-5.0716-5.077-.9976-.4458-2.2352-.3551-3.6798-.551zm78.344-4.2408c-.0065.2334-.0131.4669-.0196.7004-4.6774-.0322-9.3624-.2303-14.0284-.0152-1.868.0861-3.8281.83-5.508 1.7229-2.5771 1.3698-2.7046 3.9304-.697 6.0081 1.9862 2.0556 4.5832 2.0197 7.1034 2.3056 4.632.5255 9.267 1.0249 13.8979 1.5597 4.5596.5266 9.122 1.1812 13.3841-1.3202 2.3428-1.375 3.0494-3.1768 1.7362-5.2963-1.5312-2.4714-3.6245-4.4372-6.6507-4.8372-3.0557-.404-6.1439-.5621-9.2179-.8278zm-83.2344-7.4304c-.8439-5.5813-5.5781-10.927-11.6562-13.4407-8.6681-3.5847-17.7127 1.1419-19.057 10.3822-.478 3.2858.462 6.7828.7942 10.1795.1767 1.8071 1.2213 3.3946 2.9752 2.8416.903-.2847 1.5431-2.4083 1.7207-3.7765.3507-2.7016.0676-5.489.4595-8.1808.7394-5.0774 4.6418-7.4021 9.4721-5.9094 5.4907 1.6967 10.7865 3.7846 15.2915 7.9041zm60.2614-7.8273c2.5636-2.4626 5.2626-4.9383 7.8246-7.5485 2.6682-2.7183 5.7288-2.5365 8.8188-1.2375 4.5703 1.9212 7.3045 5.3361 8.0546 10.3779.2186 1.4693 1.2503 2.8177 1.951 4.3102 2.8967-2.0954 3.8676-5.451 2.6018-9.1949-2.3209-6.8646-7.6793-10.3746-14.3917-11.964-9.628-2.2799-17.3543 6.0056-14.8591 15.2568zm-45.4127 45.6802c6.4147 6.9217 24.2887 10.1411 32.3347 5.9916 1.2497-.6445 2.0466-2.1673 3.0529-3.2839-.1948-.2182-.3895-.4365-.5843-.6547-11.949 5.1319-23.37 1.7292-34.8033-2.053z" fill="#fdebba" data-original="#fdebba"/><path d="m186.1944 113.4314c-3.8415.9073-7.683 1.8145-11.4601 2.7066-.3272-.4915-.4747-.6969-.6055-.9124-.4989-.822-.9925-1.6472-1.4881-2.4712-.7655.7203-1.8091 1.3003-2.2538 2.1823-5.1131 10.1411-7.2472 21.15-9.4137 32.1774-2.2778 11.5942-4.9102 23.1185-7.3527 34.6807-.5638 2.6692-.9856 5.3683-1.4723 8.0534-.1593.3579-.3191.7161-.4789 1.0743.0156.1545.0164.3091.0025.4643-.7618 1.9875-1.5235 3.9746-2.2851 5.9617-.5062-.0434-1.0125-.0867-1.5184-.1298-.1925-.1624-.3852-.325-.578-.4877 0 0-.2005.0175-.2005.0175s-.201-.0096-.2018-.0098c-.5572-.1917-1.1136-.3831-1.6701-.5745 0 0 .0283.0157.0282.0156-2.9841-1.6475-5.9923-1.5989-9.0206-.1283-7.089.8653-11.8207 5.1694-15.5982 10.7931-1.2714 1.8928-2.3384 3.923-3.8781 6.5333-2.4285-2.1815-5.0462-4.0945-7.1239-6.478-7.5976-8.716-13.0333-18.6963-16.5234-29.7132-4.5195-14.2659-4.9284-28.7513-1.0641-43.1335 4.3602-16.2279 11.4985-31.2195 22.7118-43.9278 6.7897-7.6949 13.987-15.0332 21.0994-22.4375 1.3785-1.435 3.2114-2.4334 5.3255-3.996.0843 1.3189-.0332 2.1879.23 2.9201.337.9374 1.0195 2.5139 1.4844 2.4898 1.107-.0574 2.5234-.6214 3.1848-1.4711 1.449-1.8616 2.5844-3.9859 3.7113-6.0765 5.0017-9.2784 12.9995-15.5937 21.5341-21.1802 6.4918-4.2493 13.3068-8.08 20.2581-11.5328 8.5221-4.2331 17.7446-6.4701 27.1393-7.9059 1.6509-.2523 3.3297-.3222 4.9954-.4766-.228.652-.333 1.3863-.7045 1.9427-1.766 2.645-3.6044 5.2417-5.4174 7.8554-10.8699 15.6702-19.5743 32.4185-24.7675 50.8305-2.9914 10.606-6.2138 21.1961-6.6281 32.3441z" fill="#642a23" data-original="#642a23"/><path d="m188.3727 120.2928c-.0364 5.7611-.1181 11.5223-.1006 17.2832.0524 17.1814 3.0521 33.7231 11.0368 49.1103 4.2862 8.2597 9.7281 15.7335 15.8307 22.7599 6.7465 7.7677 13.9491 15.0649 22.1479 21.2775 11.7498 8.9034 24.213 16.5621 38.554 20.6786.6708.1926 1.3046.5143 1.956.7765-14.1411 5.6609-28.2977 11.2837-42.4159 17.0016-4.9837 2.0184-9.9937 1.0294-14.9556.325-21.9656-3.1186-42.2779-10.8097-61.1093-22.484-.6722-.4168-1.3019-.9023-2.0909-1.4532 3.5431-3.7087 7.4241-7.2255 5.6212-13.1035-.1625.0175-.4427-.0108-.4697.0589-2.9132 7.5387-9.7207 8.1594-16.2345 8.7758-11.5586 1.0939-21.0162-6.4316-22.0375-17.1144-.8325-8.7081 5.5536-18.789 13.7994-21.6099 3.7166-1.2715 7.37-.7999 10.7534 1.156.7664.4431 1.2255 1.413 1.8359 2.132.4729.5571 1.1051 1.6325 1.4149 1.5486.8364-.2265 1.9136-.786 2.2259-1.5044 1.0885-2.5037 2.154-5.0704 2.7662-7.72 5.7012-24.6719 11.3307-49.3606 16.8851-74.0659.3875-1.7233 1.0067-2.3 2.7218-2.4425 3.9661-.3296 7.9113-.9084 11.8648-1.3861zm-51.3798 101.7113c-.8679 4.2843-.1421 7.9141 3.7224 10.2953 2.0619 1.2705 4.0404.7993 6.0241-.8085-.958-1.6013-1.9711-3.1408-2.8287-4.7624-1.4612-2.7631-.7566-4.5115 2.1439-5.5961.7753-.2899 1.5563-.5647 2.3983-.8694-2.297-3.7912-8.0444-5.0626-12.4816-2.8326-1.0629.5342-1.7651 1.7859-2.6332 2.7077 1.0026.512 2.0052 1.024 3.0079 1.5359.1515.0772.3029.1545.6469.3301z" fill="#fddb7e" data-original="#fddb7e"/><path d="m186.1944 113.4314c.4143-11.148 3.6367-21.7381 6.6282-32.3443 5.1932-18.412 13.8976-35.1603 24.7675-50.8305 1.813-2.6136 3.6514-5.2104 5.4174-7.8554.3715-.5564.4765-1.2907.7045-1.9427 7.7992.0375 15.5981.0747 23.397.1119.9292.6321 1.7949 1.3976 2.7976 1.8757 9.5849 4.5703 19.2733 8.9307 28.776 13.6646 15.2112 7.5775 28.8186 17.3252 39.6144 30.6361 7.5443 9.3018 13.2945 19.6141 16.871 31.069.3539 1.1335-.0924 2.5168-.1674 3.7842-10.0996-2.8214-19.479-7.3014-29.3732-12.5343 3.2451-1.5919 5.9197-2.904 8.5943-4.2161-.0636-.2307-.1272-.4614-.1908-.6921-3.946.4636-7.9022.8539-11.8361 1.4037-16.3238 2.2816-32.1922 6.6084-48.1058 10.7428-21.5735 5.6049-43.165 11.1411-64.7546 16.684-1.0174.2611-2.092.3006-3.14.4434z" fill="#8d473f" data-original="#8d473f"/><path d="m345.4583 276.3417c1.9133-1.5576 3.799-3.1504 5.7443-4.667 13.2695-10.3455 10.7089-25.1081 1.2262-34.5439-2.5464-2.5339-5.5358-4.6227-8.3217-6.9156-.134-1.7455-.2996-3.4895-.3971-5.2372-.4832-8.6648-2.1704-17.0646-5.3031-25.179-1.2871-3.3339-2.3396-6.7582-3.4989-10.1414 7.2924.7578 14.5961 1.4219 21.8749 2.2933 13.9696 1.6726 27.7826 4.2199 41.4693 7.5034 2.4647.5913 3.7287 1.5864 4.4301 4.0845 2.6024 9.2694 5.4521 18.4693 8.2921 27.9735-1.3647.1805-2.5558.3469-3.7494.4944-8.9079 1.1009-15.2008 7.311-16.2563 16.2819-.4012 3.4099-.4103 6.8659-.5981 10.3008-1.2207.1222-3.0408-.5692-3.1495 1.4203-.3134 5.7326-.5782 11.5167 3.1945 16.4706 2.9215 3.8362 6.9665 6.1054 11.3015 7.9259 4.1371 1.7373 8.279.9193 12.4067-.1047-1.1449 7.8583-1.805 15.8272-3.5656 23.545-1.9187 8.4116-4.858 16.5903-7.3524 24.8706-1.6595-.1914-3.3143-.4601-4.9793-.5612-7.1274-.4329-14.2549-.8833-21.3879-1.2025-11.1561-.4993-21.6092-3.8676-32.0153-7.5374-2.0509-.7232-2.4934-1.9226-2.2364-3.835.5735-4.2665 1.3166-8.5291 1.5585-12.8176.5718-10.133.8914-20.2802 1.3129-30.4217z" fill="#fbfbfb" data-original="#fbfbfb"/><path d="m298.4599 373.2101c-6.9488-.0819-13.9256-.5995-20.8404-.1539-13.8578.893-27.6821 2.3065-41.5188 3.5218-1.9354.17-3.8625.4343-5.7936.655-.6991-6.6459-1.5245-13.2816-2.0664-19.9404-.7422-9.1213-1.4721-18.2524-1.8128-27.3941-.2065-5.5417.2806-11.1136.5481-16.6675.3733-7.7511.7876-15.5009 1.2738-23.2457.2479-3.9497.6907-7.8872 1.0455-11.8302 13.7372-4.9608 27.459-9.9648 41.2196-14.8596 4.9943-1.7766 10.0812-3.2926 15.1262-4.9276.9652-.0829 1.9573-.0493 2.8905-.2675 6.1924-1.4476 12.3723-2.9492 18.5562-4.4333-.3073 3.5668-.6147 7.1337-.922 10.7008-1.0369.1601-2.153.1269-3.0964.5144-3.4389 1.4123-6.8379 2.9261-10.2195 4.4725-8.4596 3.8688-16.9201 7.7367-25.3441 11.682-5.9372 2.7806-11.9533 5.4383-17.68 8.6098-5.4371 3.0112-5.2918 3.2736-2.8237 8.6539-.2722 1.2104-.5444 2.4207-.8167 3.6311 1.3193.1417 2.7892.7341 3.9336.3519 7.5511-2.5219 15.0277-5.2659 22.5374-7.9126 5.4127-1.9076 10.8389-3.7766 16.2594-5.6627 1.5618 4.1002 1.159 8.0862.11 12.3305-3.5765 14.4702-6.7153 29.048-10.191 43.544-.9134 3.8093.0946 6.6911 2.7126 9.3794 5.4393 5.5854 10.808 11.2405 16.1372 16.9311.506.5404.5284 1.5338.7753 2.3169z" fill="#4984ba" data-original="#4984ba"/><path d="m253.0409 475.4492c-12.1884 2.6866-24.4218 3.0083-36.7055.6984-.4516-6.3237.3055-12.5531 2.0252-18.6039 3.2088-11.2898 6.5826-22.5348 10.0491-33.7485 2.31-7.4724 3.7012-15.0909 3.7457-22.8802.0317-5.5436-.543-11.0907-.8471-16.6362 5.612-.6463 11.2084-1.5606 16.8389-1.8861 13.9394-.8059 27.8973-1.876 41.842-1.7986 9.2104.0511 18.4108 1.9062 27.6156 2.9537-.2135.7973-.427 1.5945-.6405 2.3917-2.028.3683-4.119.5356-6.0707 1.1475-3.9048 1.224-7.7332 2.6914-11.5932 4.0584 1.0533-1.3031 2.1429-2.5788 3.15-3.9166 1.1037-1.4661 1.1778-2.95-.2781-4.2523-1.5126-1.3531-3.1944-1.2684-4.529.0856-2.1687 2.2003-4.3012 4.476-6.1497 6.944-4.4539 5.9467-8.7345 12.0233-13.085 18.0475-2.8966-.4258-3.7797 1.6144-4.6715 3.7379-7.4929 17.8421-12.1143 36.4779-15.1881 55.5185-.3958 2.4519-1.6485 3.6262-3.4853 4.8799-.9658.659-1.3668 2.146-2.0228 3.2593z" fill="#4a84ba" data-original="#4a84ba"/><path d="m345.4583 276.3417c-.4215 10.1415-.7411 20.2887-1.3128 30.4217-.242 4.2885-.9851 8.5511-1.5585 12.8176-.257 1.9124.1855 3.1118 2.2364 3.835 10.4062 3.6698 20.8592 7.0381 32.0153 7.5374 7.1331.3192 14.2605.7697 21.3879 1.2025 1.665.1011 3.3198.3698 4.9793.5612-.7451 2.9015-1.3642 5.8454-2.3179 8.6766-.2602.7723-1.4677 1.6071-2.3405 1.7359-25.7269 3.7966-51.4666 4.7712-77.2024.0499-.2439-.0448-.4625-.2272-.9405-.4724.8337-3.189 1.6841-6.4043 2.5144-9.6248 3.9226-15.2144 6.6057-30.6125 6.9297-46.3673.1101-5.3563.1493-5.3706 5.2567-7.0521 3.4423-1.1333 6.9013-2.2159 10.3529-3.3212z" fill="#daf1fa" data-original="#daf1fa"/><path d="m335.0007 101.5999c.0749-1.2674.5212-2.6507.1674-3.7842-3.5764-11.4549-9.3266-21.7672-16.871-31.069-10.7958-13.3108-24.4033-23.0585-39.6144-30.6361-9.5027-4.7338-19.1911-9.0942-28.776-13.6646-1.0027-.4781-1.8684-1.2435-2.7976-1.8757 9.693.6091 19.1087 2.7112 28.3658 5.5054 18.1678 5.4838 34.603 14.1737 48.4711 27.2592 15.559 14.681 24.7418 32.8475 28.5287 53.8061.6763 3.7432 1.0601 7.5395 1.5561 11.3143.0274.2087-.1557.445-.5469 1.4718-1.3807-3.6067-2.7341-6.5246-3.6033-9.5802-.9337-3.2821-2.7539-5.0052-6.1547-5.7044-2.9906-.6146-5.823-1.9984-8.7252-3.0426z" fill="#d3776b" data-original="#d3776b"/><path d="m229.2953 278.1551c-.3547 3.943-.7975 7.8805-1.0455 11.8302-.4861 7.7448-.9005 15.4945-1.2738 23.2457-.2675 5.5539-.7546 11.1259-.5481 16.6675.3407 9.1417 1.0706 18.2729 1.8128 27.3941.5418 6.6588 1.3672 13.2945 2.0664 19.9404-4.8424.9326-9.6848 1.8653-14.7361 2.8382-.2288-2.8344-.5779-5.3606-.614-7.8913-.2696-18.9391-.6452-37.8794-.6131-56.8187.0112-6.6053.5456-13.3151 1.8409-19.7769.9144-4.5616 2.9893-9.1324 5.5655-13.0244 1.4421-2.1786 4.9616-2.9819 7.545-4.4048z" fill="#2a5a98" data-original="#2a5a98"/><path d="m304.1967 466.2804c-8.0125 3.5791-15.9557 1.7599-23.896-.3062.0023-.1769-.0333-.3648.0127-.5298 3.5998-12.9155 7.1162-25.8553 10.8575-38.7297 1.4243-4.9012 3.9616-9.1108 8.3088-12.2737 6.1557-4.4787 11.1169-10.052 13.8901-17.367.5415-1.4284 1.9765-2.5182 2.9994-3.7641-.7155 5.4873-1.2032 11.0162-2.1967 16.4527-1.7722 9.6979-3.7986 19.3506-5.815 29.0022-1.9006 9.0975-5.1166 17.9884-4.1608 27.5156z" fill="#4a85ba" data-original="#4a85ba"/><path d="m231.3084 384.2787c.3041 5.5455.8787 11.0926.8471 16.6362-.0445 7.7892-1.4357 15.4077-3.7457 22.8802-3.4665 11.2138-6.8403 22.4587-10.0491 33.7485-1.7198 6.0509-2.4768 12.2803-2.0252 18.6039-3.5392-.4723-7.0787-.9445-10.69-1.4262 6.5219-16.1904 9.097-32.7341 10.5374-49.5374 1.0251-11.9597.8237-23.8867-.5513-35.7922-.235-2.0347.3178-3.0944 2.2739-3.362 4.4639-.6107 8.9348-1.1705 13.4029-1.751z" fill="#2a5a98" data-original="#2a5a98"/><path d="m316.3693 393.3098c-1.0229 1.246-2.4578 2.3357-2.9994 3.7641-2.7733 7.3151-7.7345 12.8884-13.8901 17.367-4.3472 3.1629-6.8846 7.3725-8.3088 12.2737-3.7413 12.8744-7.2578 25.8142-10.8575 38.7297-.046.165-.0103.3529-.0127.5298-2.2008-.6748-4.3783-1.4432-6.6089-1.9983-2.3849-.5935-2.8074-2.0138-2.3009-4.1924 2.4457-10.5203 4.8465-21.0511 7.231-31.5855.6642-2.9346 1.1024-5.9257 1.8911-8.8236.2487-.9136 1.1447-1.9784 2.0109-2.3456 8.3088-3.5222 15.7508-8.4521 22.9051-13.8592.6758-.5108 1.269-1.2698 1.6218-2.0411.7975-1.7434.3323-3.0667-1.7739-3.0601-1.3737.0042-2.9342.1173-4.0853.7626-4.316 2.4196-8.4918 5.0887-12.7352 7.6393-.9688.5823-1.9977 1.0646-2.9989 1.593 0 0-.0194-.0203-.0194-.0203 1.4183-1.9769 2.7211-4.0507 4.2793-5.9104 3.1208-3.7245 6.3813-7.3319 9.5836-10.9875 3.8594-1.3668 7.6879-2.8342 11.5926-4.0582 1.9517-.6118 4.0427-.7791 6.0713-1.1477-.1982 2.4567-.3969 4.9137-.5957 7.3707z" fill="#2a5a98" data-original="#2a5a98"/><path d="m351.9903 183.6516c-.2859-11.427-2.1876-22.6293-5.4641-33.5305-3.7355-12.4283-7.9903-24.7003-11.9872-37.0506-.3483-1.0763-.457-2.2301-.6768-3.3478.1736.0247.3522.0308.5199.0768 8.1869 2.245 8.312 2.2 11.2442 10.2863 4.1571 11.4646 8.5147 22.8817 12.02 34.5495 2.9057 9.6721 3.4472 19.8259 3.7822 30.4397-3.2563-.4911-6.3472-.9572-9.4382-1.4234z" fill="#fbf2da" data-original="#fbf2da"/><path d="m314.7993 331.3359c-.9432 4.1206-1.6837 8.3025-2.905 12.339-.7441 2.4592-.0002 3.5724 2.1663 4.3368.9847.3475 1.8997.893 3.3101 1.5719-2.4248 2.8395-4.6813 5.482-6.9377 8.1243-.9722-.5153-2.1074-.8541-2.8881-1.5763-3.1732-2.9353-6.318-5.9116-9.3005-9.0376-1.1042-1.1574-2.3792-2.742-2.4384-4.1786-.1102-2.6732.5995-5.383.9938-8.0738 1.0431-7.1175 2.0697-14.2376 3.1625-21.3475.6915-4.4989 1.49-8.9813 2.2405-13.4711.446 1.1305 1.0606 2.2249 1.3117 3.3971 2.1352 9.9681 5.8901 19.2707 11.2848 27.9158z" fill="#8bcdd7" data-original="#8bcdd7"/><path d="m334.908 189.6576c1.1592 3.3832 2.2118 6.8076 3.4989 10.1414 3.1327 8.1144 4.8199 16.5143 5.3031 25.179.0974 1.7477.263 3.4917.3971 5.2372-5.416-2.2659-10.8959-2.613-15.8881-.3546-1.3784-13.8966-2.732-27.5436-4.1091-41.427 3.32.3763 7.059.8001 10.7981 1.224z" fill="#d9eff8" data-original="#d9eff8"/><path d="m247.0022 298.3005c-2.4682-5.3803-2.6135-5.6427 2.8237-8.6539 5.7267-3.1715 11.7427-5.8292 17.68-8.6098 8.424-3.9453 16.8845-7.8132 25.3441-11.682 3.3816-1.5465 6.7806-3.0602 10.2195-4.4725.9434-.3875 2.0595-.3542 3.0964-.5144 1.2364 2.7067 2.4727 5.4138 3.7438 8.1967-21.1298 8.6444-42.0187 17.1901-62.9075 25.7359z" fill="#2a5a98" data-original="#2a5a98"/><path d="m298.4599 373.2101c-.2469-.7831-.2693-1.7765-.7754-2.3168-5.3292-5.6906-10.6979-11.3457-16.1372-16.9311-2.618-2.6883-3.626-5.5701-2.7126-9.3794 3.4758-14.496 6.6145-29.0738 10.191-43.544 1.049-4.2444 1.4518-8.2303-.11-12.3305 1.5255-1.4534 2.7079-.9961 3.9432.5077 1.5669 1.9076 2.6852 3.5596 1.4124 6.3194-4.0768 8.8397-5.3075 18.4652-7.1622 27.9055-1.1747 5.9796-2.1079 12.0113-3.4479 17.9523-1.2043 5.3394.7668 9.26 4.588 12.7143 5.3782 4.8616 10.7208 9.7664 15.9412 14.7953 1.0132.976 1.3965 2.6058 2.0704 3.9341-.1826.2498-.3653.4996-.5479.7495-2.4176-.1256-4.8352-.251-7.253-.3763z" fill="#2a5996" data-original="#2a5996"/><path d="m216.2834 483.85c7.4996.3404 14.9987.9155 22.4992.9359 4.745.0129 9.4923-.8018 14.2386-1.2454.5192 1.8559 1.0384 3.7118 1.5576 5.5677-3.8245 3.4301-8.7063 4.4365-13.4493 4.8139-10.6172.8446-21.2852 1.049-31.9325 1.5139 1.0678-1.8446 2.0993-3.7113 3.2129-5.5276 1.2526-2.0431 2.5792-4.0408 3.8735-6.0584z" fill="#6f6f6e" data-original="#6f6f6e"/><path d="m302.2028 300.023c-.7505 4.4898-1.549 8.9722-2.2405 13.4711-1.0928 7.1099-2.1194 14.23-3.1625 21.3475-.3943 2.6908-1.1041 5.4006-.9938 8.0738.0593 1.4366 1.3342 3.0212 2.4384 4.1786 2.9825 3.126 6.1273 6.1023 9.3005 9.0376.7807.7222 1.916 1.061 2.8881 1.5762-1.0245 1.6304-2.049 3.2606-3.2665 5.1979-4.6771-4.2454-9.0111-8.5295-13.725-12.3442-3.5857-2.9016-4.2571-6.2989-3.6821-10.5553 1.9813-14.6663 5.1152-29.0659 9.5715-43.1754.2369-.7499 1.012-2.0098 1.2782-1.9465.894.2126 1.6709.9174 2.493 1.4346-.2996 1.2352-.5995 2.4697-.8993 3.7041z" fill="#66b7c4" data-original="#66b7c4"/><path d="m316.3693 393.3098c.1988-2.4569.3975-4.9139.5957-7.3706.2129-.7969.4264-1.5941.6399-2.3914 1.1312.1163 2.2625.2328 3.8675.3979-.5213 4.9315-.9578 9.7432-1.5492 14.5359-2.4195 19.6078-5.5256 39.0973-10.1654 58.3203-.309 1.2803-.3738 2.6313-.4449 3.9551-.1913 3.5639-1.4292 4.9299-5.1161 5.5234-.9559-9.5272 2.2602-18.4181 4.1608-27.5157 2.0163-9.6516 4.0427-19.3043 5.815-29.0022.9935-5.4365 1.4811-10.9655 2.1967-16.4527z" fill="#81c4e0" data-original="#81c4e0"/><path d="m323.1271 253.7853c1.3636-4.2302 2.7271-8.4603 4.0907-12.6905 1.3276.011 2.6608.107 3.9818.0195 9.4952-.6287 16.6661 5.336 19.2425 14.4676-5.7028 3.3582-11.6398 4.4442-17.9707 1.8933-3.106-1.2516-6.229-2.4613-9.3443-3.6899z" fill="#fdebba" data-original="#fdebba"/><path d="m400.5064 264.461c-4.1373-5.9325-4.1353-14.3795.0049-20.7462 1.4692-.2586 2.9505-.4628 4.4055-.7855 5.1794-1.1488 6.809-.4514 9.0063 4.3277 1.0269 2.2334 1.7798 4.5999 2.5531 6.9404.5674 1.7171 1.2535 3.1641 3.419 2.9952-.0524 1.9334-.1047 3.8669-.1571 5.8003-.9211-1.6108-1.8423-3.2215-2.8318-4.9518-5.3386 2.9207-9.6579 7.8597-16.3999 6.4199z" fill="#fdebba" data-original="#fdebba"/><path d="m323.1271 253.7853c3.1153 1.2286 6.2382 2.4383 9.3442 3.6899 6.3309 2.5509 12.2679 1.465 17.9705-1.8927.3464.0157.6929.0309 1.0395.0461.2672 4.94-2.7725 8.059-6.2675 10.6898-4.2006 3.1619-8.9007 5.3412-14.2479 5.9361-4.5634.5077-6.5351-.7321-7.1312-5.218-.5414-4.0739-.753-8.1923-1.0743-12.2938-.024-.3077.2378-.6378.3667-.9574z" fill="#fbda7b" data-original="#fbda7b"/><path d="m320.6945 301.7922c-.6582 5.195-1.3163 10.3901-1.9745 15.5851-.2617.0245-.5235.049-.7852.0735-.3804-.744-.8033-1.4696-1.1348-2.2348-3.1982-7.3825-6.335-14.7921-9.6012-22.1442-.7888-1.7756-.9761-3.2971.1476-4.9712.7847-1.1692 1.5736-2.4129 1.9872-3.7397 1.3877-4.4519 4.9388-5.6034 8.9419-6.1768.5053 6.0833.9766 12.1693 1.5366 18.2471.1655 1.7987.5813 3.5746.8824 5.361z" fill="#4982b7" data-original="#4982b7"/><path d="m286.6031 475.1975c5.3128.0206 10.6258.0683 15.9382.0343.8511-.0054 1.6998-.3761 2.5498-.5779.6105 1.2518 1.1682 2.5325 1.8411 3.7495 1.8819 3.4038 3.8115 6.7813 5.7223 10.1691-3.119.3458-6.2349.9376-9.3577.9771-4.2209.0534-8.4486-.2935-12.6698-.5316-.6544-.0369-1.2899-.4091-1.9345-.6257-.6967-4.3978-1.393-8.7963-2.0894-13.1948z" fill="#6f6f6e" data-original="#6f6f6e"/><path d="m414.1238 284.3015c-4.1277 1.0241-8.2696 1.842-12.4067.1047-4.335-1.8205-8.3799-4.0896-11.3015-7.9259-3.7727-4.9539-3.5078-10.7379-3.1945-16.4706.1088-1.9894 1.9289-1.2981 3.1495-1.4203 1.287 4.4897 2.2604 9.1364 5.6936 12.6411 5.0614 5.1667 11.1176 7.2698 18.5921 5.5396-.188 2.6591-.3602 5.0953-.5325 7.5314z" fill="#d9eff8" data-original="#d9eff8"/><path d="m253.0409 475.4492c.6561-1.1133 1.057-2.6003 2.0229-3.2596 1.8368-1.2536 3.0895-2.428 3.4853-4.8799 3.0738-19.0406 7.6952-37.6764 15.1881-55.5185.8918-2.1235 1.7749-4.1638 4.6715-3.7379-7.9506 17.0261-10.9497 35.442-14.9695 53.5652-.5914 2.6665-.6985 5.4482-.926 8.1853-.2021 2.4314-1.2797 3.9435-3.789 4.381-1.9098.3329-3.7899.8367-5.6833 1.2644z" fill="#81c4e0" data-original="#81c4e0"/><path d="m286.6031 475.1975c.6964 4.3985 1.3927 8.797 2.0894 13.1949-5.3985-.7189-10.8064-1.3776-16.1913-2.1883-1.8344-.2762-2.5356-1.6226-2.4967-3.4843.0899-4.3123.0786-8.6268.1111-13.3295 5.9601 2.0992 11.2238 3.9532 16.4875 5.8072z" fill="#4d4a4a" data-original="#4d4a4a"/><path d="m400.5064 264.461c6.742 1.4398 11.0613-3.4992 16.3998-6.42.9895 1.7303 1.9106 3.341 2.8318 4.9518.5809 4.4763-1.1906 6.5159-5.5905 7.0037-5.6135.6224-10.5812-.0177-13.6411-5.5355z" fill="#fbda7b" data-original="#fbda7b"/><path d="m351.4814 255.6285c-.3466-.0152-.6931-.0303-1.0395-.0461-2.5761-9.1321-9.7471-15.0968-19.2423-14.4681-1.321.0875-2.6542-.0085-3.9818-.0195 2.698-5.1504 7.7105-6.8784 12.6679-4.1337 7.2962 4.0397 12.0992 9.7325 11.5957 18.6674z" fill="#f8efd7" data-original="#f8efd7"/><path d="m419.8952 257.1925c-2.1656.1689-2.8517-1.278-3.419-2.9952-.7733-2.3405-1.5262-4.707-2.5531-6.9404-2.1973-4.7791-3.8269-5.4765-9.0063-4.3277-1.455.3227-2.9362.527-4.4055.7855 1.4619-3.2156 4.333-4.4563 7.4804-5.2202 1.2763-.3098 2.6155-.4145 3.9331-.4901 3.8944-.2232 4.6578.2034 5.4386 4.0789 1.008 5.0034 1.7024 10.0699 2.5318 15.1092z" fill="#f8efd7" data-original="#f8efd7"/><path d="m302.2028 300.023c.2999-1.2344.5998-2.4689.8993-3.7041 3.9305 9.5389 7.9833 19.0317 11.6856 28.6592.7104 1.8472.043 4.2242.0114 6.3572-5.3945-8.6446-9.1493-17.9472-11.2846-27.9153-.2512-1.1721-.8657-2.2665-1.3117-3.397z" fill="#c7dee2" data-original="#c7dee2"/><path d="m317.3701 269.9574c-.5693.1965-1.3942.4812-2.3155.7992-4.6567-6.372-5.0504-13.2937-2.4664-20.3794.4599-1.2612 2.8361-1.8236 4.527-2.8271-.6014 4.1647-1.5599 7.7688-1.5168 11.361.0427 3.5587 1.0953 7.1053 1.7717 11.0463z" fill="#c7dee2" data-original="#c7dee2"/><path d="m317.677 359.1852c1.2079-2.8056 2.4157-5.6111 3.6235-8.4167.3246.0326.6492.0652.9738.0979.3891 8.3683-.5386 16.7452-.3409 25.4039-1.4595-.3696-2.6295-.666-3.7995-.9623-.1522-5.3744-.3046-10.7486-.4569-16.1228z" fill="#81c4e0" data-original="#81c4e0"/><path d="m312.6546 488.5726c-1.9108-3.3878-3.8403-6.7653-5.7223-10.1691-.6729-1.217-1.2306-2.4977-1.8411-3.7495 1.7437-1.5735 3.3779-1.2499 4.7974.4068 2.7422 3.2006 5.4564 6.4268 8.114 9.6978 1.8435 2.269 1.4566 3.3268-1.4279 3.8014-1.273.2095-2.6114.0207-3.9201.0126z" fill="#abaaaa" data-original="#abaaaa"/><path d="m317.677 359.1852c.1523 5.3742.3047 10.7484.457 16.1227-2.8822-.3908-5.7644-.7816-8.9478-1.2133 1.2102-6.1092 4.9052-10.479 8.4908-14.9094z" fill="#4982b7" data-original="#4982b7"/><path d="m216.2834 483.85c-1.2944 2.0175-2.6209 4.0153-3.8735 6.0584-1.1135 1.8164-2.145 3.683-3.2129 5.5276-2.0518-.014-4.1035-.0281-6.1552-.0423-.1513-.3465-.3026-.6931-.4539-1.0397 2.0438-2.7577 4.0859-5.5167 6.1348-8.2708.1562-.21.3631-.3817.5405-.5766 2.8593-3.1386 2.8591-3.1387 7.0202-1.6566z" fill="#4d4a4a" data-original="#4d4a4a"/><path d="m320.6945 301.7922c-.3011-1.7864-.7169-3.5623-.8826-5.3611-.5599-6.0778-1.0312-12.1638-1.5366-18.2471 3.1127-.9351 4.4633-.216 4.2628 2.7866-.464 6.9505-1.2112 13.8823-1.8436 20.8216z" fill="#2a5996" data-original="#2a5996"/><path d="m307.0878 253.6671c-6.1839 1.484-12.3638 2.9856-18.5562 4.4333-.9332.2182-1.9253.1846-2.8905.2675.306-.2943.5622-.7405.9261-.8606 6.9978-2.3098 14.0081-4.5813 21.5566-7.0365-.4342 1.3397-.7351 2.268-1.036 3.1963z" fill="#81c4e0" data-original="#81c4e0"/><path d="m295.7983 286.2108c2.0485-.8403 4.097-1.6807 6.1455-2.521.2497.2798.4993.5595.749.8393-.7574 1.334-1.2919 3.5211-2.3272 3.7917-1.3745.3593-3.1399-.777-4.7373-1.2707.0566-.2798.1133-.5595.17-.8393z" fill="#66b7c4" data-original="#66b7c4"/><path d="m254.5789 489.1082c-.5192-1.8559-1.0384-3.7118-1.5576-5.5677 1.5358-.1332 3.394-1.8812 4.3628.847.7046 1.9846-.3545 3.7466-2.8052 4.7207z" fill="#abaaaa" data-original="#abaaaa"/><g fill="#4d4a4a"><path d="m149.3867 197.3485c.7617-1.9871 1.5233-3.9742 2.2851-5.9617-.1982 1.9249-.3095 3.8644-.6213 5.7711-.2652 1.6216-.9424 1.5622-1.6638.1906z" fill="#4d4a4a" data-original="#4d4a4a"/><path d="m136.2256 196.0515c3.0283-1.4706 6.0365-1.5192 9.0206.1283-3.0068-.0427-6.0137-.0855-9.0206-.1283z" fill="#4d4a4a" data-original="#4d4a4a"/><path d="m145.218 196.1642c.5564.1914 1.1129.3828 1.6701.5745-.5562-.1914-1.1132-.3829-1.6701-.5745z" fill="#4d4a4a" data-original="#4d4a4a"/><path d="m151.6693 190.9225c.1598-.3582.3196-.7164.4789-1.0743-.1599.3583-.3194.7163-.4789 1.0743z" fill="#4d4a4a" data-original="#4d4a4a"/><path d="m147.2903 196.731c.1928.1627.3855.3253.578.4877-.1929-.1628-.3855-.3253-.578-.4877z" fill="#4d4a4a" data-original="#4d4a4a"/></g><path d="m285.4576 408.0632c-.0312.0653-.0494.1441-.0983.1909-.03.0287-.1069.0085-.1628.0103.0807-.0737.1614-.1473.2419-.2211-.0002-.0004.0192.0199.0192.0199z" fill="#2a5a98" data-original="#2a5a98"/><path d="m252.5154 169.5701c1.4446.1959 2.6822.1051 3.6798.5511 2.3154 1.035 5.2759 2.0884 5.0716 5.077-.2057 3.0089-2.4541 5.4926-5.2436 6.4859-4.6242 1.6467-9.4441 2.7796-14.2304 3.9252s-9.6304 2.0513-14.4551 3.0333c-.5988.1218-1.2341.058-1.8516.0947-2.2567.1341-4.0908-.5878-4.8351-2.8555-.7201-2.1938.7263-3.5882 2.3592-4.5341 3.5067-2.0316 7.0125-4.1348 10.7272-5.7197 4.7735-2.0366 9.7334-3.6469 14.6534-5.3222 1.3896-.4732 2.9204-.5315 4.1246-.7357z" fill="#fea1b2" data-original="#fea1b2"/><path d="m330.8594 165.3293c3.074.2658 6.1622.4238 9.218.8277 3.0262.4 5.1195 2.3658 6.6507 4.8372 1.3132 2.1195.6067 3.9213-1.7362 5.2963-4.2621 2.5014-8.8245 1.8468-13.3841 1.3202-4.6309-.5348-9.2659-1.0343-13.8979-1.5597-2.5203-.2859-5.1172-.25-7.1034-2.3056-2.0076-2.0777-1.8801-4.6383.697-6.0081 1.6799-.8929 3.64-1.6367 5.508-1.7229 4.666-.2152 9.351-.0171 14.0284.0152.0064-.2334.013-.4669.0195-.7003z" fill="#fea1b2" data-original="#fea1b2"/><path d="m247.625 157.8989c-4.5049-4.1195-9.8008-6.2073-15.2914-7.904-4.8303-1.4927-8.7327.832-9.4721 5.9094-.392 2.6918-.1089 5.4792-.4595 8.1808-.1776 1.3681-.8177 3.4918-1.7207 3.7765-1.754.553-2.7985-1.0345-2.9752-2.8416-.3322-3.3967-1.2723-6.8937-.7942-10.1795 1.3443-9.2403 10.3889-13.9669 19.057-10.3822 6.078 2.5135 10.8121 7.8593 11.6561 13.4406z" fill="#271915" data-original="#271915"/><path d="m307.8864 150.0716c-2.4952-9.2512 5.2311-17.5367 14.859-15.2568 6.7124 1.5894 12.0708 5.0994 14.3917 11.964 1.2658 3.7439.2949 7.0995-2.6018 9.1949-.7007-1.4926-1.7324-2.8409-1.951-4.3102-.7501-5.0418-3.4843-8.4566-8.0546-10.3779-3.0899-1.2989-6.1506-1.4808-8.8188 1.2375-2.5619 2.6101-5.2609 5.0858-7.8245 7.5485z" fill="#271915" data-original="#271915"/><path d="m262.4737 195.7518c11.4334 3.7822 22.8543 7.1848 34.8032 2.053.1948.2182.3895.4365.5843.6547-1.0063 1.1166-1.8031 2.6393-3.0529 3.2839-8.0459 4.1495-25.9199.9301-32.3346-5.9916z" fill="#2f211a" data-original="#2f211a"/><path d="m136.9929 222.0041c-.344-.1756-.4955-.2528-.6469-.3302-1.0026-.512-2.0052-1.024-3.0079-1.5359.8681-.9217 1.5704-2.1735 2.6332-2.7077 4.4371-2.23 10.1846-.9585 12.4816 2.8326-.842.3047-1.623.5794-2.3983.8694-2.9005 1.0846-3.6051 2.833-2.1439 5.5961.8576 1.6217 1.8707 3.1611 2.8287 4.7624-1.9837 1.6078-3.9622 2.079-6.0241.8085-3.8644-2.3811-4.5903-6.0109-3.7224-10.2952z" fill="#432720" data-original="#432720"/></g></g></svg>
