<?xml version="1.0"?>
<svg xmlns="http://www.w3.org/2000/svg" xmlns:xlink="http://www.w3.org/1999/xlink" xmlns:svgjs="http://svgjs.com/svgjs" version="1.1" width="512" height="512" x="0" y="0" viewBox="0 0 512 512" style="enable-background:new 0 0 512 512" xml:space="preserve" class=""><g><g xmlns="http://www.w3.org/2000/svg" id="mail"><rect fill="#282524" height="424.8" rx="212.4" width="424.8" x="43.6" y="43.6" data-original="#1e2e33"/><g fill="#fff"><path d="m351.53 170.5h-191.06a20 20 0 0 0 -16.5 8.71l95.52 67.73a28.59 28.59 0 0 0 33 0l95.51-67.73a20 20 0 0 0 -16.47-8.71z" fill="#ffffff" data-original="#ffffff"/><path d="m280.76 258.58a42.86 42.86 0 0 1 -49.53 0l-90.76-64.35v127.26a20 20 0 0 0 20 20h191.06a20 20 0 0 0 20-20v-127.26z" fill="#ffffff" data-original="#ffffff"/></g></g></g></svg>
